<svg height="512" width="512" xmlns="http://www.w3.org/2000/svg"><path d="m153.0011292 434.5310059c-53.6824112-31.4574891-99.5295029-107.4005127-123.2259617-174.0118409-9.5180397-28.8961792-12.7777996-59.8764648-25.047802-87.6560822-12.8356504-20.1764832 2.1995654-42.2327118 24.3003674-48.6462021 9.8397408-1.8885422 27.1410866-11.1696091 6.2566109-4.5359802-18.7235909 13.7371597-20.5356255-12.4695587-1.3360405-14.1290054 13.1027908-1.7416229 17.9262352-12.4680634 13.4454689-22.1242371-14.0651474-9.172081 34.1060219-19.2523575 9.8682137-32.9384041-25.2492257-27.2410945 35.3182601-32.4850768 20.3753279-1.5475387-3.5768661 23.7896996 42.3219757-4.3601837 31.6723785 23.1117516 10.8241653 13.1929703 40.5337067 3.0027542 39.7966766 21.511261 15.7679749 1.0838928 21.1795959 14.3510208 35.9815674 15.3695755 15.3407745 6.9278259 43.1511536 12.3870468 48.3713379 29.6743698-15.2197723 12.049469-50.4634094-24.8894882-52.1565704 8.4648132 6.4226227 117.6536255 12.507431 158.2190247 69.3195038 219.8548279 38.2683563 43.2992554 90.8531342 63.7183228 135.2448578 70.9877625 9.5621338-7.3139038 26.4439087-34.5052795 41.3608398-23.0392761.7077332 12.8833008-29.6072998 26.9316101-1.4262085 25.5077209 16.5476685-4.9919434 28.0250549 12.7974854 41.6517639-3.2485962 12.5541687 14.870636 52.1804504-9.5011597 43.2478943 20.8945923-12.0788269 7.7929077-29.6950989 3.0839233-41.7938232 13.8043823-19.9475403-9.9630737-35.8286743 8.914856-57.9120483 6.5274658-85.1335754 14.900177-196.0738068 1.4597779-257.9943542-43.8313598zm100.0612487 36.821228c37.1141052 5.1620178 75.4411926 13.1017456 112.6882935 5.8592224-16.8575745-7.6119995-34.285553 2.9654846-51.0796204-5.4430542-20.1424255 4.3342285-41.7575378-1.104126-62.2345428-3.7816162-23.2858582-10.372345-48.4152679-17.5046387-70.2214966-30.9681702-27.2477722-9.952301 14.0921783 12.7632446 21.4505615 14.6029968 17.0333252 9.6682129-18.7312012-4.9562073-23.7731781-8.9753418-14.2664337-8.0027771-16.4455414-6.1375732-1.7737122 1.9898071 22.8779908 14.1732179 51.5501862 23.7814637 74.9436951 26.7161561m-106.2286834-50.598938c20.6846771 7.6616211-.091217-14.5458984-9.5697632-13.2554932-4.1994934-7.2856445-16.044426-11.8881836-7.6889343-15.8018494-15.0299072 5.217804-15.7444839-19.8419495-22.8092651-16.2615967-15.9003525-5.0207825-6.1884155-22.8066101-25.1285324-33.7288818-1.7288666-11.5089722-18.8178215-21.491272-24.2684326-38.8508301-2.4073029-8.888092-19.3067932-34.4116211-8.925415-10.6580505 8.8392334 22.8667603 24.3911514 42.4493408 37.3333359 62.009613 10.0495682 18.6236267 21.9159775 38.0874939 40.2182083 49.7053833 6.1695175 5.9182434 12.1263199 14.9865417 20.8387985 16.8416748v.0000306zm26.638443-36.0437622c-11.3176117-6.0328064-35.9552917-9.1540527-18.5689392 4.6459961 11.1607665 4.5104065 39.6061096 6.6985779 18.5689392-4.6459961zm18.9690551 23.9846191c24.3070068 6.875946-20.4399719-15.3713074-5.9972382-2.5301514zm.206192-12.8799743c17.6580811 2.2767029-21.010498-12.0106201-3.8743439-1.2783813zm61.3700104 37.7348632c16.4859009-9.855835 11.0507812 23.0791626 27.9692688 2.7823181 16.6887512-12.1851501-14.4120789 15.0646973 6.1560059 2.1726074 14.8747253-9.9486084 36.8451843 4.7160034 50.7247925 9.500824 9.9812927-.4903564 19.6845398 8.6307678 29.9169617 3.0817261 19.6974792-5.3054199-38.5179749-7.868866-23.2577209-17.2818298-18.0233154 5.245575-31.3397522-6.2536011-40.2084656-17.7981873-20.2168884-4.668396-43.5922241-15.0043945-53.6819916-32.8956604-4.1137695-6.7174988 5.9429474.9463501-3.5511932-10.0343018-12.1822662-10.8353577-18.2652893-23.1351318-26.4432373-36.3062439-9.7696075-5.211853-10.9077454-20.5525513-11.8953857-.5143127.0774078-12.6464233-11.7954865-21.1583862-14.6934204-17.6200562-.0519562-12.1792297 12.7062225-6.0742493 3.7750702-15.0854797-1.9223175-12.6233215-8.2517395-25.7771912-10.1542206-40.02948-2.9558868-6.8701172-.4162598-21.5842133-10.088501-6.0318298-3.5238647 16.4364929-1.1696167-20.1985931 4.3103485-8.1177826 7.1926575-12.3273468-2.5822601-10.8775177-2.9826965-9.1657715 4.6853638-10.4011078 2.9654999-25.1544342-1.2225342-19.5261383 2.4966125-11.0239258 3.9441681-40.5711212-3.7366486-35.3349915 4.6559296-11.52771 8.8298187-52.7485809-11.3821411-37.0324097-8.1914978.1150055-22.3767853 2.9735413-29.0821381 6.3082733 21.0240936 11.5890503-2.1147156 4.1851959-10.6729126 2.343277-1.1151352 10.7233429-9.5918579 6.085556-20.1820679 6.1906891 16.9148102 2.0927429-8.236763 17.2996674-17.9402771 11.3925934-12.6021347 6.023056 10.8759689 21.057663.2528381 25.7061615 1.305542 7.008255-19.3065033-2.530838-17.6876831 13.6536865-12.23423-5.1466675-1.6846008 19.1986694 4.4361572 10.9648895 20.8081665 5.6316223 14.6484528 18.4710541 15.1783447 30.66745-3.3904037 7.106842-16.7386398-16.7049255-2.9728622-15.6021423-10.8601532-17.6419067-12.0132294-6.37677-21.0376511 1.818924-2.0994797.5951996 23.0192337 11.6611023 7.2559357 17.1329193 13.8684387 2.1398621 14.2629929 14.276062 17.0862732 21.9557495 8.3356781 8.6820984 6.6296387-9.586792 16.6035843.8469849-6.3116226-9.2953491-33.4313049-26.1904144-11.5963058-20.7717896-.1167221-9.3553925-3.9490585-16.8993683 2.7405853-16.7163544 6.6246567-11.9972534-6.9380875 29.5802155 7.9942856 14.3327484 4.133522-1.8049011 5.1573486-12.0124512 12.5872574.9639587 10.7915268 10.6161804 3.8979492 18.3088989-11.3247147 8.5882263 2.7234802 9.2390442 20.3640442 12.5407104 17.0489426 26.9887695 3.5143356 12.7073669 8.4311829 8.0270081 12.717041 7.2923584 3.3619995 12.3466797 5.2711334 3.2678833 5.430603-2.6075745 15.3937225 3.2953186 11.7880249 12.3948975 16.6046143 18.7523804 10.6075745 4.7879333-15.1830292-32.4544983 3.0283508-11.1985474 19.160141 17.2987061 7.2893829 23.2617493-10.0087738 21.7484436 14.3881226 1.1775208 14.6903839 13.9938965 28.0045166 14.1647949 11.5726471 5.9671021 20.6930389 28.3543396-.7033386 18.9126892-12.0656586-7.4859619-33.5583801-14.7137451-12.1086273-1.9863892 5.0778198 3.2139893 35.5454865 14.6624146 54.6523743 26.1782227 10.5786438 7.2315979 19.5818634 20.942627 24.7646484 23.1558838-11.4925842 5.4892578-34.6340942-4.3833313-17.4501343-7.4089355-10.7180939-1.9523926-22.4013214-7.4499817-12.5070801 5.9816895 8.5074005 7.7786255 30.9276886 6.51651 34.9070282 7.3423462-3.3730164 7.432251-9.1620026 8.0233154.1382141 8.599762-10.3754425 5.5292359 3.3269958 6.3854066 4.288681 9.5448609zm-22.3378906-68.1228942c-6.8237-10.7593689-5.1915436 1.6057129 1.1209564 8.2073059 10.0887757 11.9992981 2.3783264-6.802063-1.1209564-8.2073059zm-37.6710815-55.657898s1.6820526-11.3502197-3.5073547-12.6057129c-5.1893921-1.2554932-2.3308868.8341675 1.8217468 9.8191528.990387 2.1428833 1.6020508 2.8860779 1.5937195 2.8368225m-56.7118073-43.0715026c-5.1548462-11.5453339 2.4529266-5.2762146 1.3450623-10.2001038-2.3790741-4.9496613-25.5075607-31.2354279-14.9723816-11.3909607 9.5333405 23.6733093-5.998642-2.9718323-7.6189041-11.0375519-1.7910004 4.9525299 3.7721405 21.1756744 7.1352005 26.7047577 8.5614623 13.1846619 4.71035-7.2208252 14.1110229 5.9238587zm-47.36232-45.524231c-13.3859863-11.2599945 4.1266785 5.5503082-1.309082 5.3381805-14.1071167-10.3026733-8.3409119-3.0037842-.3728027 4.9141541 8.6325988 12.8267212 15.757698-7.6858368 1.6818847-10.2523346zm6.8722458 1.9358673c25.3226624 6.957428-26.9482803-24.436142-3.784317-3.8218231zm70.0761643 29.9297486c-7.26828.1478577 3.0145416-15.8267212-6.7302399-12.6743774-3.4183807-24.8277435-10.7859344 11.4738922-.7620087 17.4841766 3.0951386 8.8927307 6.3467713 5.2691345 7.4922486-4.8097992zm-59.7852631-35.3179016c33.7177429 15.5610352-24.412529-25.7392883-9.5312271-5.2075958 1.7686691 3.9571075 6.0079803 4.2861175 9.5312271 5.2075958zm3.8643417-8.0661927c25.5371017 10.5557556-2.2714233-6.8690491-11.1159515-4.9773254 2.2295532 3.2633209 8.2784653 1.8361206 11.1159515 4.9773254zm3.4194565-9.5552368c8.2898712-1.6559296-1.0994186-4.313858-6.0532303-8.2500458-11.4646835-17.2228088 1.705246 1.3905945-1.8984299 6.676712 4.7717591 4.6899567 20.9894181 13.0747987 7.9516602 1.5733338zm58.6477661-26.7211609c-3.3854065 17.8914948-6.8383179 10.4293213-1.9854584-2.90979-1.1609497-17.1194-11.5649109 10.4840393-6.9671021 18.5865173 7.6020814 12.1091156 15.2043916-29.757492 8.9525605-15.6767273zm10.1085358 213.0164337c13.1669769 3.3783875 13.0996704-2.048645 1.1994476-3.6609497-6.4008484-5.9544983-26.5977631-12.2703857-8.5204926-.7388611 1.1972199 3.0326539 4.9803162 2.9620362 7.321045 4.3998108zm-46.7492828-31.0506897c7.2537537 5.4091797 27.3229065 15.3305054 10.3337555 2.0588074 5.7279816-6.6549072-10.9635925-10.1972351-5.4266205-14.6488647-14.0834808-8.6178589-11.1099091-7.8512878-1.2430725-7.5801086-16.925827-7.5654602 2.4431305-6.9995422 1.5311279-10.8760986-6.5264587-1.2890015-32.4168472-11.5081177-17.1856613.839447-15.4835129-7.8945923-3.6897659 2.9408569-8.3696671 1.7952881-15.8329239-4.3169861 14.1001282 12.0588074-2.514595 7.9936523 9.0833206 7.1981812 24.4492264 18.4378967 3.8402481 7.6175537-2.7154083 3.9086608 14.7479858 9.8333435 19.0344849 12.8003234zm164.5148162 96.4792176c6.9450073-6.7295837.2839355 10.719574 11.5078735-1.6474609.1213684-8.8532715-.3456116-14.08255-12.8981628-3.3279724-3.4603271 1.9190063-5.0051574 10.0784911 1.3902893 4.9754333zm-113.7304687-73.019043c7.7255707 6.8620605 35.4823761 5.0349426 9.3832703.8444519-3.8654938-5.7153625-24.5452424-4.3398132-9.3832703-.8444519zm-127.247963-85.4754333c-11.2223434-16.012146-6.9761238-23.2094727-17.7983246-36.2836304-2.0487404-9.9978943-18.5657768-32.6851959-8.5429649-8.6497955 9.1803169 14.0572051 11.9083023 35.8217926 26.3412895 44.9334259zm332.5024796 158.0320129c10.9185181-2.2137146 35.7996521 5.557373 39.821167-2.8949585-13.2592468-.3219299-45.8738403-9.3546448-47.4169312 2.1555481zm-371.8001003-275.9060211c-1.9899578-11.4075928-4.3963261-31.4311981 14.6376362-24.6642456-25.4071846 5.0443268 17.5845909 31.5785522 12.155529 10.6288452 10.6831245.5230865 20.8986588-6.3137512 15.2922821 4.0615387 21.0488892-2.3247375 35.6417999-20.5771027 55.9736176-18.0194244 15.8375168-2.0958252 33.1536942-3.6853485 50.220665-10.0604858 14.0322571-1.01091 27.5402222-16.1187592 19.8487549-25.0735092-19.1359863-1.6191177-39.1672668.775116-60.3178253 4.979126-23.4374771 4.8723145-44.7266083 14.1293716-68.3744965 18.1029282-23.0500069 3.0963287 4.6363029 8.5311432-1.9661407 9.7419586-12.027832 4.1733093 14.34412 6.9875336-1.5593185 11.3870087-9.8216782-1.8674622-20.0447807-5.2421112-15.8494034-15.5923615-22.0798759 2.8651581-41.4817505 12.0290527-24.0373116 34.4981689zm59.0112209-24.5636597c19.2501297 13.1603088-3.3083572-21.604599-8.4853134-2.5331573 2.4045334-.5914154 6.1860351.8124084 8.4853134 2.5331573zm5.4792404-8.8182526c18.2485504 1.835144-2.7954102-11.5863953-3.4699173-3.1591644zm30.5831299-11.1764831c26.9356918-5.1270523-9.8634338-8.5575485-17.7550125.9245605 5.00103 2.2803345 10.5352783-6.3600082 17.7550125-.9245605zm46.2005539-9.1760407c17.0274811-2.6150894 2.6764984-10.4310074-2.3053894 2.6232452 1.8060913 4.1160737 2.6751404-1.2340774 2.3053894-2.6232452zm-91.5955963 69.5614777c9.6241684-.661026 15.0575943-10.6161804-1.8612976-10.0439301-26.2213821-2.7146606 23.1346741 8.9783325-3.3638 5.634903-3.5605737 2.3579102 5.0182571 5.0614319 5.2250976 4.4090271zm-13.4766503-76.0220413c17.1762505-5.8432846 38.8596001-10.8062057 48.5266685 3.2857285-7.2714386-10.2589264-3.0830154-20.1220703 4.7126465-5.5977859 11.0231552 14.6954803 14.9786682-3.7757416 9.3719482-11.6130524 5.3342056 8.4368286 25.1380463 26.8077469 5.4704285.6416473 13.0322571-15.6764908-26.0948639 2.0528107-34.9881897 1.8742752-4.2789153 1.920578-44.1763686 10.1749343-33.093502 11.4091873zm10.0662499-19.2786713c9.7957687-7.3934937 33.8789597 4.3979034 18.4249191-7.3478241-1.5109329-1.3346252-33.8444519 8.9069443-18.4249191 7.3478241zm35.7123871 1.4743881c11.4645844.2925491-4.9451828-15.4015579 8.7163239-8.2900696-2.2436752-7.3297729-15.9058304-8.7019958-22.5850906-11.6304398-3.7778169 6.7014924 7.6896285 20.0105897 13.8687667 19.9205094zm-42.1081925-50.2499466c-13.0086174-16.9815998 24.4644699 2.8545533 11.2477036-14.9257698-11.124073-8.8581218-21.8136673 9.9683953-11.2477036 14.9257698zm166.9449082 89.9213334c5.9664612-10.576973-24.6331482-14.2571564-4.0200043-3.7486267 1.8978577.6341857 1.4683228 4.4801635 4.0200043 3.7486267z"/></svg>